<svg width="623" height="918" viewBox="0 0 623 918" fill="none" xmlns="http://www.w3.org/2000/svg">
<path d="M82.17 116.336C94.97 124.016 102.65 137.84 107.258 151.664C120.57 188.528 121.594 232.048 116.986 270.448C113.402 299.632 105.21 344.688 72.442 355.952C21.754 372.848 2.81 304.24 12.026 266.864C14.074 260.208 20.73 257.648 27.386 258.16C25.85 257.136 24.314 256.112 23.29 254.576C8.442 237.68 7.418 209.52 8.442 188.016C9.978 164.976 15.61 136.816 34.554 120.944C47.866 109.68 66.81 107.12 82.17 116.336ZM87.29 245.872C88.826 216.176 87.29 183.92 76.026 155.76C74.49 150.64 71.93 146.032 68.858 141.424C66.81 138.352 63.738 136.304 63.226 135.792C62.714 135.28 62.714 135.28 62.714 135.28C62.714 135.28 62.714 135.28 62.202 135.28V134.768V135.28C62.202 135.28 62.202 135.28 61.69 135.28C59.642 136.304 61.69 134.256 59.13 136.304C54.522 140.4 51.45 144.496 48.89 150.128C41.21 166 39.162 184.432 39.674 201.84C40.186 215.152 41.21 232.048 50.426 242.288C58.618 252.016 46.33 260.208 35.066 259.696C40.186 262.256 44.282 266.864 42.234 273.52C38.138 289.904 41.21 313.968 51.45 327.28C53.498 330.352 55.034 331.888 58.106 333.424C58.618 333.424 59.642 332.912 60.666 332.912C63.226 331.888 65.274 329.84 67.834 326.256C83.706 304.24 86.266 271.984 87.29 245.872ZM162.578 111.728C188.178 112.752 215.826 117.872 233.746 138.352C246.546 153.2 248.594 173.168 245.522 191.6C239.378 223.856 217.874 257.136 189.714 276.592C208.146 288.88 221.458 307.312 230.162 328.816C236.306 345.2 205.586 350.32 199.954 335.472C193.81 320.624 184.594 304.752 170.77 295.536C170.77 311.92 171.282 328.304 172.306 344.688C172.818 360.56 141.586 361.072 141.074 344.688C137.49 271.472 138.514 198.256 142.61 125.552C143.122 119.408 147.73 115.312 153.362 113.776C155.41 112.24 158.482 111.728 162.578 111.728ZM213.266 193.648C216.85 180.848 217.362 166 209.682 154.736C201.49 142.96 187.154 138.864 173.33 137.328C171.282 177.264 170.258 217.2 170.258 257.136C191.25 242.288 206.61 217.2 213.266 193.648ZM287.102 111.728C312.19 113.264 336.766 120.432 353.15 140.4C379.774 172.656 373.118 221.296 361.342 257.648C350.078 294 329.086 333.936 295.294 354.416C292.222 355.952 289.15 356.976 286.59 356.464C278.398 356.464 270.206 352.88 268.67 344.688C258.43 273.008 258.942 196.72 268.67 125.04C269.182 120.944 271.742 117.872 274.814 115.824C277.374 113.264 281.47 111.728 287.102 111.728ZM296.83 318.064C338.814 270.448 369.534 152.688 298.366 137.84C291.198 196.72 290.686 258.672 296.83 318.064ZM460.73 300.656C466.362 285.808 497.082 290.928 490.938 307.312C481.21 332.912 464.826 362.608 433.082 356.976C418.746 354.416 407.994 345.2 400.826 332.912C384.442 305.776 382.394 269.936 383.418 239.216C384.442 207.472 388.538 172.656 403.386 143.984C409.018 133.232 416.698 122.992 428.474 117.872C443.834 110.704 463.29 114.288 474.042 127.6C495.034 153.2 490.938 199.792 483.77 230C483.77 231.536 482.746 233.072 482.234 234.096C481.21 235.12 480.698 236.144 479.674 237.168C462.266 254.064 437.178 259.184 414.65 253.04C414.65 274.544 417.21 297.584 425.914 317.04C427.962 321.136 430.01 324.72 433.082 328.304C435.13 330.352 436.154 331.376 438.714 332.4C439.226 332.912 441.274 332.4 439.738 332.912C443.322 331.376 440.762 333.424 444.346 330.864C453.05 323.696 457.146 310.384 460.73 300.656ZM426.426 168.048C419.77 186.992 416.698 206.448 415.162 225.904C416.186 226.416 416.698 226.416 417.21 226.928C431.034 233.584 442.81 231.536 454.074 222.832C457.146 208.496 457.658 193.136 457.146 178.8C456.634 166.512 455.61 149.616 446.906 139.888C444.858 137.84 443.834 138.864 443.834 138.864C443.834 139.376 440.25 141.424 439.226 142.96C433.082 150.128 429.498 159.344 426.426 168.048ZM534.578 111.728C560.178 112.752 587.826 117.872 605.746 138.352C618.546 153.2 620.594 173.168 617.522 191.6C611.378 223.856 589.874 257.136 561.714 276.592C580.146 288.88 593.458 307.312 602.162 328.816C608.306 345.2 577.586 350.32 571.954 335.472C565.81 320.624 556.594 304.752 542.77 295.536C542.77 311.92 543.282 328.304 544.306 344.688C544.818 360.56 513.586 361.072 513.074 344.688C509.49 271.472 510.514 198.256 514.61 125.552C515.122 119.408 519.73 115.312 525.362 113.776C527.41 112.24 530.482 111.728 534.578 111.728ZM585.266 193.648C588.85 180.848 589.362 166 581.682 154.736C573.49 142.96 559.154 138.864 545.33 137.328C543.282 177.264 542.258 217.2 542.258 257.136C563.25 242.288 578.61 217.2 585.266 193.648ZM183.33 569.704C202.786 569.704 202.786 594.792 183.33 594.792C172.066 594.792 160.802 594.792 149.538 594.792C146.978 664.424 145.954 734.056 148.002 803.688C148.002 820.072 116.77 820.072 116.258 803.688C114.722 734.056 115.746 664.424 117.794 594.792C106.53 594.792 95.266 594.792 83.49 594.792C64.034 594.792 64.034 569.704 83.49 569.704C116.77 570.216 150.05 570.216 183.33 569.704ZM286.422 584.552C285.398 568.168 316.63 568.168 317.654 584.552C322.262 657.256 322.774 730.472 319.702 803.688C318.678 820.072 287.446 819.56 287.958 803.688C288.982 783.72 289.494 763.752 290.006 744.296C272.086 744.808 254.678 744.808 236.758 744.296C237.27 764.264 237.782 783.72 238.806 803.688C239.318 819.56 208.086 820.072 207.574 803.688C203.99 730.472 205.014 657.256 209.11 584.552C210.134 567.656 241.366 568.168 240.854 584.552C237.782 629.096 236.246 674.664 236.758 719.72C254.678 719.72 272.598 719.72 290.518 719.208C290.518 674.152 288.982 629.096 286.422 584.552ZM417.194 570.728C459.178 578.408 463.786 635.752 465.834 669.032C468.394 712.552 465.322 756.072 461.226 799.08C459.69 813.416 436.138 814.952 431.018 804.712C402.858 810.856 373.162 815.976 353.194 789.864C338.346 771.432 335.786 744.808 341.418 722.28C347.562 697.704 370.602 676.712 397.226 681.32C414.634 683.88 426.922 694.632 435.626 708.968C435.626 692.072 435.114 675.176 433.578 658.28C432.042 639.848 429.994 615.784 417.706 600.424C413.61 595.304 411.05 593.256 405.418 595.816C390.57 601.96 385.45 621.928 382.378 635.752C378.282 651.112 348.074 646.504 352.17 629.608C359.338 598.376 380.33 564.072 417.194 570.728ZM379.306 776.552C391.082 791.912 410.026 784.232 426.41 780.136C423.85 765.8 420.266 751.464 415.146 737.64C411.562 727.912 403.882 706.408 391.082 705.384C378.794 704.36 372.138 723.816 370.602 732.52C368.042 746.856 370.602 764.776 379.306 776.552ZM529.486 594.792C526.926 660.328 526.414 726.376 527.95 791.912C528.462 791.912 528.974 791.912 529.486 791.912C536.142 791.912 544.846 796.52 544.846 804.2C544.846 812.392 536.142 816.488 529.486 816.488C518.734 816.488 507.982 816.488 497.23 816.488C490.574 816.488 481.87 812.392 481.87 804.2C481.87 796.52 489.55 792.424 496.206 791.912C495.182 726.376 495.694 660.328 498.254 594.792C497.742 594.792 497.742 594.792 497.23 594.792C490.574 594.792 481.87 590.184 481.87 582.504C481.87 574.312 490.574 569.704 497.23 569.704C507.982 570.216 518.734 570.216 529.486 569.704C536.654 569.704 545.358 574.312 545.358 582.504C545.358 590.184 536.654 594.792 529.486 594.792Z" fill="black"/>
<rect x="16" y="473" width="591" height="429" rx="56" stroke="black" stroke-width="32"/>
</svg>
